# xmcd
#
# Track frame offsets: 
#        150
#        52627
#        115294
#        137301
#        174288
#
# Disc length: 3349 seconds
#
# Revision: 0
# Processed by: cddbd v1.5.1PL2 Copyright (c) Steve Scherf et al.
# Submitted via: ExactAudioCopy v0.95a5
#
DISCID=300d1305
DTITLE=Featuring Eric Clapton Disc 2 - Buddy Guy
DYEAR=2002
DGENRE=Blues
TTITLE0=Worry Worry 
TTITLE1=I Just Wanna Make Love to You
TTITLE2=Someday Baby (vocals Junior Wells)
TTITLE3=Early in the Morning
TTITLE4=Rock me Baby (vocals Buddy and Junior Wells)
EXTD=
EXTT0=
EXTT1=
EXTT2=
EXTT3=
EXTT4=
PLAYORDER=
